<svg xmlns="http://www.w3.org/2000/svg" width="800" height="200" viewBox="0 0 800 200">
  <g transform="translate(200, -20) scale(1.5)">
    <path fill="#cc1e4c" d="M35.262 105.092l-6.326-11.29h22.872L40.323 69.47l-16.838 35.622H3.338l26.376-48.08h21.218l26.182 48.08H35.262zM77.211 77.159h25.111c6.326 0 8.857-.389 8.857-4.867 0-4.282-2.045-4.769-8.564-4.769H77.114l-5.645-10.511h35.428c16.742 0 22.971 7.299 22.971 15.086 0 7.494-5.742 15.767-24.139 15.767H97.36v17.227H77.114V77.159h.097z"/>
    <path d="M182.328 101.492c-6.035 2.822-13.529 4.184-21.51 4.184-24.139 0-32.412-13.431-32.412-24.526 0-14.015 12.264-24.819 33.385-24.819 7.689 0 14.404 1.168 20.049 3.309v13.918c-5.838-3.114-10.9-4.477-16.838-4.477-10.121 0-18.395 4.575-18.395 11.874 0 7.203 8.467 11.875 18.59 11.875 5.84 0 10.609-1.168 17.131-4.185v12.847z" fill="#cc1e4c"/>
  </g>
</svg>
